mastitorrents.com
  
http://mastitorrents.com/forums/index.php







----------------------------------------------------------------------------------------------------
----------------------------------------------------------------------------------------------------

LIKE US @ FACEBOOK


1. ---> http://urlgator.com/efyQx   [MastiTorrentsReleasers]

2. ---> http://urlgator.com/FG4tl   [MastiTorrents]


[OR]



Search for "MastiTorrentsReleasers" and "MastiTorrents" 



We are waiting for you!!!



----------------------------------------------------------------------------------------------------
----------------------------------------------------------------------------------------------------





****************************************************************************************************
****************************************************************************************************





8b    d8    db    .dP"Y8 888888 88 888888  dP"Yb  88""Yb 88""Yb 888888 88b 88 888888 .dP"Y8 
88b  d88   dPYb   `Ybo."   88   88   88   dP   Yb 88__dP 88__dP 88__   88Yb88   88   `Ybo." 
88YbdP88  dP__Yb  o.`Y8b   88   88   88   Yb   dP 88"Yb  88"Yb  88""   88 Y88   88   o.`Y8b 
88 YY 88 dP""""Yb 8bodP'   88   88   88    YbodP  88  Yb 88  Yb 888888 88  Y8   88   8bodP' 




****************************************************************************************************
****************************************************************************************************




====================================================================================================

                        MASTI TORRENTS RELEASERS [ MTR ]

                            Where Quality Matters!

====================================================================================================









description:




PREVIEW

Mudhal Idam will be a full-fledged commercial entertainer laced with romance, sentiments, comedy, action and sentiments. The film is produced by M.Saravanan and M.S. Gugan under the banner of AVM ProductionsViddharth who played the grubby and down with love villager in Myna is the male lead in Mudalidam. The movie also has a horde of newcomers and is directed by R Kumaran. D Imman’s music has been released recently to favorable reviews. 



CAST & CREW 

Starring: Vidharth, Kavitha Nair, Keerthi Chawla
Direction: R Kumaran
Music: D.Imman
Production: AVM Productions


Quote:


General
Complete name : D:\Mudhal Idam (Tamil 2011) Untouched TC (audio cleaned) TDM -=MTR=- mastitorrents\VIDEO_TS\VTS_01_1.VOB
Format : MPEG-PS
File size : 794 MiB
Duration : 2h 22mn
Overall bit rate : 778 Kbps

Video
ID : 224 (0xE0)
Format : MPEG Video
Format version : Version 2
Format profile : Main@Main
Format settings, BVOP : Yes
Format settings, Matrix : Default
Format settings, GOP : M=3, N=15
Duration : 2h 22mn
Bit rate mode : Variable
Bit rate : 680 Kbps
Width : 352 pixels
Height : 240 pixels
Display aspect ratio : 4:3
Frame rate : 29.970 fps
Standard : NTSC
Color space : YUV
Chroma subsampling : 4:2:0
Bit depth : 8 bits
Scan type : Progressive
Compression mode : Lossy
Bits/(Pixel*Frame) : 0.269
Stream size : 713 MiB (90%)

Audio
ID : 192 (0xC0)
Format : MPEG Audio
Format version : Version 1
Format profile : Layer 2
Duration : 2h 22mn
Bit rate mode : Constant
Bit rate : 64.0 Kbps
Channel(s) : 2 channels
Sampling rate : 48.0 KHz
Compression mode : Lossy
Stream size : 65.3 MiB (8%)






Screens/Covers:
 
http://browseimage.net/out.php/i667_vlcsnap2011082518h40m09s76.png
 
http://browseimage.net/out.php/i666_vlcsnap2011082518h39m08s242.png
 
http://browseimage.net/out.php/i665_vlcsnap2011082518h36m58s206.png
 
http://browseimage.net/out.php/i664_vlcsnap2011082518h40m01s4.png
 
http://browseimage.net/out.php/i663_vlcsnap2011082518h37m46s177.png
 
http://browseimage.net/out.php/i662_vlcsnap2011082518h37m11s74.png
 
http://browseimage.net/out.php/i661_vlcsnap2011082518h36m25s131.png
 
http://browseimage.net/out.php/i660_vlcsnap2011082518h39m16s65.png
 
http://browseimage.net/out.php/i659_vlcsnap2011082518h38m32s129.png
 
http://browseimage.net/out.php/i658_vlcsnap2011082518h34m00s207.png






****check out my other releases****

 
http://thepiratebay.org/user/tdkdemon/













    <<<<<<<SUPERFAST RELEASES BROUGHT TO YOU BY>>>>>>

          


                                  Masti Torrents Releasers [ MTR ]





            8888b.  888888 8b    d8  dP"Yb  88b 88     88888 8b    d8 888888 88""Yb 88888 
             8I  Yb 88__   88b  d88 dP   Yb 88Yb88     88    88b  d88   88   88__dP    88 
             8I  dY 88""   88YbdP88 Yb   dP 88 Y88     88    88YbdP88   88   88"Yb     88 
            8888Y"  888888 88 YY 88  YbodP  88  Y8     88888 88 YY 88   88   88  Yb 88888 
